<svg aria-hidden="true" style="position: absolute; width: 0; height: 0; overflow: hidden;" version="1.1" xmlns="http://www.w3.org/2000/svg" xmlns:xlink="http://www.w3.org/1999/xlink">
<defs>
<symbol id="icon-user" viewBox="0 0 23 32">
<path fill="#4f2ee8" style="fill: var(--color1, #4f2ee8)" d="M0.296 30.963c0-2.986 1.186-5.85 3.298-7.962s4.975-3.298 7.962-3.298 5.85 1.186 7.961 3.298c2.112 2.112 3.298 4.975 3.298 7.962h-22.518zM11.556 18.296c-4.666 0-8.444-3.779-8.444-8.444s3.779-8.444 8.444-8.444c4.666 0 8.444 3.779 8.444 8.444s-3.779 8.444-8.444 8.444z"></path>
</symbol>
<symbol id="icon-arrow-narrow-right" viewBox="0 0 43 32">
<path fill="none" stroke="#eac645" style="stroke: var(--color2, #eac645)" stroke-linejoin="round" stroke-linecap="round" stroke-miterlimit="4" stroke-width="5.3333" d="M3.555 16h35.556M39.111 16l-13.333-13.333M39.111 16l-13.333 13.333"></path>
</symbol>
<symbol id="icon-x-close-black" viewBox="0 0 32 32">
<path stroke-linejoin="round" stroke-linecap="round" stroke-miterlimit="4" stroke-width="5.3333" d="M28.444 3.556l-24.889 24.889M3.556 3.556l24.889 24.889"></path>
</symbol>
<symbol id="icon-x-close" viewBox="0 0 32 32">
<path fill="none" stroke="#4f2ee8" style="stroke: var(--color1, #4f2ee8)" stroke-linejoin="round" stroke-linecap="round" stroke-miterlimit="4" stroke-width="5.3333" d="M28.444 3.556l-24.889 24.889M3.556 3.556l24.889 24.889"></path>
</symbol>
<symbol id="icon-lock" viewBox="0 0 32 32">
<path stroke-linejoin="round" stroke-linecap="round" stroke-miterlimit="4" stroke-width="2.6667" d="M23.778 14.444v-4.667c0-4.296-3.482-7.778-7.778-7.778s-7.778 3.482-7.778 7.778v4.667M9.467 30h13.067c2.614 0 3.92 0 4.919-0.509 0.878-0.447 1.592-1.161 2.039-2.039 0.509-0.998 0.509-2.305 0.509-4.919v-0.622c0-2.614 0-3.92-0.509-4.919-0.447-0.878-1.161-1.592-2.039-2.039-0.998-0.509-2.305-0.509-4.919-0.509h-13.067c-2.614 0-3.92 0-4.919 0.509-0.878 0.447-1.592 1.161-2.039 2.039-0.509 0.998-0.509 2.305-0.509 4.919v0.622c0 2.614 0 3.92 0.509 4.919 0.447 0.878 1.161 1.592 2.039 2.039 0.998 0.509 2.305 0.509 4.919 0.509z"></path>
</symbol>
<symbol id="icon-mail" viewBox="0 0 38 32">
<path stroke-linejoin="round" stroke-linecap="round" stroke-miterlimit="4" stroke-width="2.9091" d="M35.030 26.182l-11.273-10.182M14.060 16l-11.273 10.182M1.939 7.515l13.856 9.699c1.122 0.785 1.683 1.178 2.293 1.33 0.539 0.134 1.103 0.134 1.642 0 0.61-0.152 1.171-0.545 2.293-1.33l13.856-9.699M10.085 29.576h17.648c2.851 0 4.277 0 5.366-0.555 0.958-0.488 1.737-1.267 2.225-2.225 0.555-1.089 0.555-2.515 0.555-5.366v-10.861c0-2.851 0-4.277-0.555-5.366-0.488-0.958-1.267-1.737-2.225-2.225-1.089-0.555-2.515-0.555-5.366-0.555h-17.648c-2.851 0-4.277 0-5.366 0.555-0.958 0.488-1.737 1.267-2.225 2.225-0.555 1.089-0.555 2.515-0.555 5.366v10.861c0 2.851 0 4.277 0.555 5.366 0.488 0.958 1.267 1.737 2.225 2.225 1.089 0.555 2.515 0.555 5.366 0.555z"></path>
</symbol>
<symbol id="icon-shopping-bag" viewBox="0 0 25 32">
<path d="M22.815 8.593h-4.444v-1.481c0-1.572-0.624-3.079-1.736-4.19s-2.619-1.736-4.19-1.736c-1.572 0-3.079 0.624-4.19 1.736s-1.736 2.619-1.736 4.19v1.481h-4.444c-0.393 0-0.77 0.156-1.048 0.434s-0.434 0.655-0.434 1.048v16.296c0 1.179 0.468 2.309 1.302 3.143s1.964 1.302 3.143 1.302h14.815c1.179 0 2.309-0.468 3.143-1.302s1.302-1.964 1.302-3.143v-16.296c0-0.393-0.156-0.77-0.434-1.048s-0.655-0.434-1.048-0.434zM9.481 7.111c0-0.786 0.312-1.539 0.868-2.095s1.309-0.868 2.095-0.868c0.786 0 1.539 0.312 2.095 0.868s0.868 1.309 0.868 2.095v1.481h-5.926v-1.481zM21.333 26.37c0 0.393-0.156 0.77-0.434 1.047s-0.655 0.434-1.047 0.434h-14.815c-0.393 0-0.77-0.156-1.048-0.434s-0.434-0.655-0.434-1.047v-14.815h2.963v1.481c0 0.393 0.156 0.77 0.434 1.048s0.655 0.434 1.048 0.434c0.393 0 0.77-0.156 1.048-0.434s0.434-0.655 0.434-1.048v-1.481h5.926v1.481c0 0.393 0.156 0.77 0.434 1.048s0.655 0.434 1.048 0.434c0.393 0 0.77-0.156 1.047-0.434s0.434-0.655 0.434-1.048v-1.481h2.963v14.815z"></path>
</symbol>
<symbol id="icon-logo-1" viewBox="0 0 32 32">
<path fill="#f6f6f6" style="fill: var(--color3, #f6f6f6)" d="M0 0l16.343 16.171 15.657 15.829v-32h-32z"></path>
<path fill="#f6f6f6" style="fill: var(--color3, #f6f6f6)" d="M4.457 4.229l11.943 11.829 11.257 11.486h-23.2v-23.314z"></path>
<path fill="#4f2ee8" style="fill: var(--color1, #4f2ee8)" d="M27.733 27.618l-11.943-11.829-11.257-11.486h23.2v23.314z"></path>
<path fill="#4f2ee8" style="fill: var(--color1, #4f2ee8)" d="M9.257 9.029l13.6 13.6h-13.6v-13.6z"></path>
<path fill="#f6f6f6" style="fill: var(--color3, #f6f6f6)" d="M9.257 9.029l13.6 13.6v-13.6h-13.6z"></path>
</symbol>
</defs>
</svg>
